<?xml version="1.0" encoding="iso-8859-1"?>
<!-- Generator: Adobe Illustrator 17.1.0, SVG Export Plug-In . SVG Version: 6.00 Build 0)  -->
<!DOCTYPE svg PUBLIC "-//W3C//DTD SVG 1.1//EN" "http://www.w3.org/Graphics/SVG/1.1/DTD/svg11.dtd">
<svg version="1.1" id="Capa_1" xmlns="http://www.w3.org/2000/svg" xmlns:xlink="http://www.w3.org/1999/xlink" x="0px" y="0px"
	 viewBox="0 0 180.936 180.936" style="enable-background:new 0 0 180.936 180.936;" xml:space="preserve">
<path style="fill:#000002;" d="M169.769,161.493H11.167c-1.381,0-2.5-1.119-2.5-2.5v-24c0-1.381,1.119-2.5,2.5-2.5h1.468V60.882H2.5
	c-1.193,0-2.219-0.843-2.452-2.013c-0.232-1.169,0.394-2.341,1.496-2.797l87.968-36.438c0.612-0.254,1.301-0.254,1.913,0
	l87.968,36.438c1.102,0.456,1.728,1.628,1.496,2.797c-0.233,1.17-1.259,2.013-2.452,2.013h-10.134v71.611h1.468
	c1.381,0,2.5,1.119,2.5,2.5v24C172.269,160.374,171.15,161.493,169.769,161.493z M13.667,156.493h153.603v-19H13.667V156.493z
	 M157.635,132.493h5.667V60.882h-5.667V132.493z M140.302,132.493h12.333V60.882h-12.333V132.493z M129.635,132.493h5.667V60.882
	h-5.667V132.493z M112.302,132.493h12.333V60.882h-12.333V132.493z M101.635,132.493h5.667V60.882h-5.667V132.493z M84.302,132.493
	h12.333V60.882H84.302V132.493z M73.635,132.493h5.667V60.882h-5.667V132.493z M56.302,132.493h12.333V60.882H56.302V132.493z
	 M45.635,132.493h5.667V60.882h-5.667V132.493z M28.302,132.493h12.333V60.882H28.302V132.493z M17.635,132.493h5.667V60.882h-5.667
	V132.493z M138.324,55.882h16.299c0.165-0.036,0.336-0.055,0.511-0.055h10.601L90.468,24.649L15.201,55.827h10.601
	c0.179,0,0.354,0.019,0.522,0.055h16.299c0.165-0.036,0.336-0.055,0.511-0.055h10.667c0.179,0,0.354,0.019,0.522,0.055h16.299
	c0.165-0.036,0.336-0.055,0.511-0.055h10.667c0.179,0,0.354,0.019,0.522,0.055h16.299c0.165-0.036,0.336-0.055,0.511-0.055h10.667
	c0.179,0,0.354,0.019,0.522,0.055h16.299c0.165-0.036,0.336-0.055,0.511-0.055h10.667C137.981,55.827,138.156,55.846,138.324,55.882
	z"/>
<g>
</g>
<g>
</g>
<g>
</g>
<g>
</g>
<g>
</g>
<g>
</g>
<g>
</g>
<g>
</g>
<g>
</g>
<g>
</g>
<g>
</g>
<g>
</g>
<g>
</g>
<g>
</g>
<g>
</g>
</svg>
