<?xml version="1.0" encoding="iso-8859-1"?>
<!-- Generator: Adobe Illustrator 19.0.0, SVG Export Plug-In . SVG Version: 6.00 Build 0)  -->
<svg version="1.1" id="Capa_1" xmlns="http://www.w3.org/2000/svg" xmlns:xlink="http://www.w3.org/1999/xlink" x="0px" y="0px"
	 viewBox="0 0 480 480" style="enable-background:new 0 0 480 480;" xml:space="preserve">
<g>
	<g>
		<g>
			<path d="M472,320H304v-24c0-4.418-3.582-8-8-8h-48.248c10.184-7.487,16.213-19.36,16.248-32c0-4.418-3.582-8-8-8h-64
				c-4.418,0-8,3.582-8,8c0.035,12.64,6.064,24.513,16.248,32h-40.496c10.184-7.487,16.213-19.36,16.248-32c0-4.418-3.582-8-8-8h-64
				c-4.418,0-8,3.582-8,8c0.035,12.64,6.064,24.513,16.248,32H8c-4.418,0-8,3.582-8,8v176c0,4.418,3.582,8,8,8h464
				c4.418,0,8-3.582,8-8V328C480,323.582,476.418,320,472,320z M144,464H16V352h128V464z M144,336H16v-32h128V336z M128.013,278.645
				c-6.845-2.416-12.229-7.8-14.645-14.645h45.264C154.221,276.499,140.512,283.056,128.013,278.645z M246.632,264
				c-4.411,12.499-18.12,19.056-30.619,14.645c-6.845-2.416-12.229-7.8-14.645-14.645H246.632z M288,464H160V352h128V464z M288,328
				v8H160v-32h128V328z M464,464H304V336h160V464z"/>
			<path d="M8,176h288c4.418,0,8-3.582,8-8v-40h168c4.418-0.002,7.998-3.586,7.996-8.004c-0.001-1.638-0.505-3.237-1.444-4.58
				L424,37.48V8c0-4.418-3.582-8-8-8h-56c-4.418,0-8,3.582-8,8v29.48l-48,68.568V8c0-4.418-3.582-8-8-8H8C3.582,0,0,3.582,0,8v160
				C0,172.418,3.582,176,8,176z M366.552,44.584c0.941-1.343,1.447-2.944,1.448-4.584V16h40v24c0.001,1.64,0.507,3.241,1.448,4.584
				L456.64,112H319.36L366.552,44.584z M160,16h128v32H160V16z M160,64h128v96H160V64z M16,16h128v32H16V16z M16,64h128v96H16V64z"
				/>
			<path d="M352,280c-4.418,0-8,3.582-8,8v8h-24c-4.418,0-8,3.582-8,8s3.582,8,8,8h144c4.418,0,8-3.582,8-8s-3.582-8-8-8h-24.496
				l0.48-7.488c0.283-4.418-3.07-8.229-7.488-8.512s-8.229,3.07-8.512,7.488L423.472,296H360v-8C360,283.582,356.418,280,352,280z"
				/>
			<path d="M320,456h128c4.418,0,8-3.582,8-8v-96c0-4.418-3.582-8-8-8H320c-4.418,0-8,3.582-8,8v96C312,452.418,315.582,456,320,456
				z M328,360h112v80H328V360z"/>
			<path d="M128,88c-4.418,0-8,3.582-8,8v32c0,4.418,3.582,8,8,8s8-3.582,8-8V96C136,91.582,132.418,88,128,88z"/>
			<path d="M272,88c-4.418,0-8,3.582-8,8v32c0,4.418,3.582,8,8,8s8-3.582,8-8V96C280,91.582,276.418,88,272,88z"/>
			<path d="M272,432c4.418,0,8-3.582,8-8v-32c0-4.418-3.582-8-8-8s-8,3.582-8,8v32C264,428.418,267.582,432,272,432z"/>
			<path d="M128,432c4.418,0,8-3.582,8-8v-32c0-4.418-3.582-8-8-8s-8,3.582-8,8v32C120,428.418,123.582,432,128,432z"/>
			<path d="M400,368h-32c-4.418,0-8,3.582-8,8s3.582,8,8,8h32c4.418,0,8-3.582,8-8S404.418,368,400,368z"/>
		</g>
	</g>
</g>
<g>
</g>
<g>
</g>
<g>
</g>
<g>
</g>
<g>
</g>
<g>
</g>
<g>
</g>
<g>
</g>
<g>
</g>
<g>
</g>
<g>
</g>
<g>
</g>
<g>
</g>
<g>
</g>
<g>
</g>
</svg>
