<?xml version="1.0" encoding="iso-8859-1"?>
<!-- Generator: Adobe Illustrator 17.1.0, SVG Export Plug-In . SVG Version: 6.00 Build 0)  -->
<!DOCTYPE svg PUBLIC "-//W3C//DTD SVG 1.1//EN" "http://www.w3.org/Graphics/SVG/1.1/DTD/svg11.dtd">
<svg version="1.1" id="Capa_1" xmlns="http://www.w3.org/2000/svg" xmlns:xlink="http://www.w3.org/1999/xlink" x="0px" y="0px"
	 viewBox="0 0 162.543 162.543" style="enable-background:new 0 0 162.543 162.543;" xml:space="preserve">
<path style="fill:#000002;" d="M98.871,162.543H64.028c-0.061,0-0.12-0.002-0.179-0.006H8.127c-1.381,0-2.5-1.119-2.5-2.5V14.036
	c0-1.381,1.119-2.5,2.5-2.5h3.194V2.5c0-1.381,1.119-2.5,2.5-2.5h134.901c1.381,0,2.5,1.119,2.5,2.5v9.036h3.194
	c1.381,0,2.5,1.119,2.5,2.5v146.001c0,1.381-1.119,2.5-2.5,2.5H99.05C98.991,162.542,98.931,162.543,98.871,162.543z
	 M101.371,157.537h50.546V16.536H10.627v141.001h50.901v-46.153c0-1.381,1.119-2.5,2.5-2.5h34.843c1.381,0,2.5,1.119,2.5,2.5
	V157.537z M66.528,157.537h29.843v-43.653H66.528V157.537z M16.321,11.536h129.901V5H16.321V11.536z M144.546,141.549h-34.844
	c-1.381,0-2.5-1.119-2.5-2.5v-27.781c0-1.381,1.119-2.5,2.5-2.5h34.844c1.381,0,2.5,1.119,2.5,2.5v27.781
	C147.046,140.43,145.927,141.549,144.546,141.549z M112.202,136.549h29.844v-12.775h-29.844V136.549z M112.202,118.774h29.844
	v-5.006h-29.844V118.774z M53.197,141.549H18.353c-1.381,0-2.5-1.119-2.5-2.5v-27.781c0-1.381,1.119-2.5,2.5-2.5h34.844
	c1.381,0,2.5,1.119,2.5,2.5v27.781C55.697,140.43,54.577,141.549,53.197,141.549z M20.853,136.549h29.844v-12.775H20.853V136.549z
	 M20.853,118.774h29.844v-5.006H20.853V118.774z M144.546,97.995h-34.844c-1.381,0-2.5-1.119-2.5-2.5V67.714
	c0-1.381,1.119-2.5,2.5-2.5h34.844c1.381,0,2.5,1.119,2.5,2.5v27.781C147.046,96.875,145.927,97.995,144.546,97.995z
	 M112.202,92.995h29.844v-13.01h-29.844V92.995z M112.202,74.984h29.844v-4.771h-29.844V74.984z M98.871,97.995H64.028
	c-1.381,0-2.5-1.119-2.5-2.5V67.714c0-1.381,1.119-2.5,2.5-2.5h34.843c1.381,0,2.5,1.119,2.5,2.5v27.781
	C101.371,96.875,100.252,97.995,98.871,97.995z M66.528,92.995h29.843v-13.01H66.528V92.995z M66.528,74.984h29.843v-4.771H66.528
	V74.984z M53.197,97.995H18.353c-1.381,0-2.5-1.119-2.5-2.5V67.714c0-1.381,1.119-2.5,2.5-2.5h34.844c1.381,0,2.5,1.119,2.5,2.5
	v27.781C55.697,96.875,54.577,97.995,53.197,97.995z M20.853,92.995h29.844v-13.01H20.853V92.995z M20.853,74.984h29.844v-4.771
	H20.853V74.984z M144.546,54.44h-34.844c-1.381,0-2.5-1.119-2.5-2.5V24.16c0-1.381,1.119-2.5,2.5-2.5h34.844
	c1.381,0,2.5,1.119,2.5,2.5V51.94C147.046,53.321,145.927,54.44,144.546,54.44z M112.202,49.44h29.844V36.312h-29.844V49.44z
	 M112.202,31.312h29.844V26.66h-29.844V31.312z M98.871,54.44H64.028c-1.381,0-2.5-1.119-2.5-2.5V24.16c0-1.381,1.119-2.5,2.5-2.5
	h34.843c1.381,0,2.5,1.119,2.5,2.5V51.94C101.371,53.321,100.252,54.44,98.871,54.44z M66.528,49.44h29.843V36.312H66.528V49.44z
	 M66.528,31.312h29.843V26.66H66.528V31.312z M53.197,54.44H18.353c-1.381,0-2.5-1.119-2.5-2.5V24.16c0-1.381,1.119-2.5,2.5-2.5
	h34.844c1.381,0,2.5,1.119,2.5,2.5V51.94C55.697,53.321,54.577,54.44,53.197,54.44z M20.853,49.44h29.844V36.312H20.853V49.44z
	 M20.853,31.312h29.844V26.66H20.853V31.312z"/>
<g>
</g>
<g>
</g>
<g>
</g>
<g>
</g>
<g>
</g>
<g>
</g>
<g>
</g>
<g>
</g>
<g>
</g>
<g>
</g>
<g>
</g>
<g>
</g>
<g>
</g>
<g>
</g>
<g>
</g>
</svg>
